<!DOCTYPE svg PUBLIC "-//W3C//DTD SVG 1.1//EN" "http://www.w3.org/Graphics/SVG/1.1/DTD/svg11.dtd">
<!-- Uploaded to: SVG Repo, www.svgrepo.com, Transformed by: SVG Repo Mixer Tools -->
<svg height="800px" width="800px" version="1.1" id="Layer_1" xmlns="http://www.w3.org/2000/svg" xmlns:xlink="http://www.w3.org/1999/xlink" viewBox="0 0 460 460" xml:space="preserve" fill="#000000">
<g id="SVGRepo_bgCarrier" stroke-width="0"/>
<g id="SVGRepo_tracerCarrier" stroke-linecap="round" stroke-linejoin="round"/>
<g id="SVGRepo_iconCarrier"> <g id="XMLID_1052_"> <path id="XMLID_37_" style="fill:#9466ff;" d="M181.705,454.904l273.2-273.2C432.714,77.87,340.458,0,230,0 C102.975,0,0,102.974,0,230C0,340.458,77.871,432.714,181.705,454.904z"/> <path id="XMLID_36_" style="fill:#814bd2;" d="M460,230c0-16.568-1.767-32.721-5.096-48.296L403.2,130L56.8,330l124.904,124.904 C197.279,458.233,213.432,460,230,460C357.026,460,460,357.025,460,230z"/> <polygon id="XMLID_35_" style="fill:#3d88c2;" points="230,30 148.4,88.66 56.8,130 56.8,330 148.4,371.34 230,430 311.6,371.34 403.2,330 393.2,230 403.2,130 "/> <polygon id="XMLID_34_" style="fill:#12398F;" points="403.2,130 403.2,330 230,230 "/> <polygon id="XMLID_33_" style="fill:#071E61;" points="403.2,330 230,430 230,230 "/> <polygon id="XMLID_32_" style="fill:#1D54BD;" points="230,230 230,430 56.8,330 "/> <polygon id="XMLID_3_" style="fill:#12B5FF;" points="230,30 230,230 56.8,130 "/> </g> </g>
</svg>